<mxfile host="app.diagrams.net" agent="Mozilla/5.0 (Windows NT 10.0; Win64; x64) AppleWebKit/537.36 (KHTML, like Gecko) Chrome/131.0.0.0 Safari/537.36" version="25.0.3">
  <diagram name="Page-1" id="K5uZHWuYmvXRJdDWvrcO">
    <mxGraphModel dx="1290" dy="557" grid="1" gridSize="10" guides="1" tooltips="1" connect="1" arrows="1" fold="1" page="1" pageScale="1" pageWidth="850" pageHeight="1100" math="0" shadow="0">
      <root>
        <mxCell id="0" />
        <mxCell id="1" parent="0" />
        <mxCell id="9FboqDBzAEqwBqU-InhN-2" value="Web Server" style="shape=module;align=left;spacingLeft=20;align=center;verticalAlign=top;whiteSpace=wrap;html=1;" vertex="1" parent="1">
          <mxGeometry x="99" y="60" width="100" height="50" as="geometry" />
        </mxCell>
        <mxCell id="9FboqDBzAEqwBqU-InhN-3" value="package" style="shape=folder;fontStyle=1;spacingTop=10;tabWidth=40;tabHeight=14;tabPosition=left;html=1;whiteSpace=wrap;" vertex="1" parent="1">
          <mxGeometry x="210" y="290" width="70" height="50" as="geometry" />
        </mxCell>
        <mxCell id="9FboqDBzAEqwBqU-InhN-4" value="Data:&lt;br&gt;Video&lt;div&gt;Comment&lt;/div&gt;&lt;div&gt;User&lt;/div&gt;" style="html=1;dropTarget=0;whiteSpace=wrap;" vertex="1" parent="1">
          <mxGeometry x="440" y="290" width="180" height="90" as="geometry" />
        </mxCell>
        <mxCell id="9FboqDBzAEqwBqU-InhN-5" value="" style="shape=module;jettyWidth=8;jettyHeight=4;" vertex="1" parent="9FboqDBzAEqwBqU-InhN-4">
          <mxGeometry x="1" width="20" height="20" relative="1" as="geometry">
            <mxPoint x="-27" y="7" as="offset" />
          </mxGeometry>
        </mxCell>
        <mxCell id="9FboqDBzAEqwBqU-InhN-6" value="Database" style="shape=module;align=left;spacingLeft=20;align=center;verticalAlign=top;whiteSpace=wrap;html=1;" vertex="1" parent="1">
          <mxGeometry x="240" y="60" width="100" height="50" as="geometry" />
        </mxCell>
        <mxCell id="9FboqDBzAEqwBqU-InhN-7" value="Database" style="shape=module;align=left;spacingLeft=20;align=center;verticalAlign=top;whiteSpace=wrap;html=1;" vertex="1" parent="1">
          <mxGeometry x="380" y="60" width="100" height="50" as="geometry" />
        </mxCell>
      </root>
    </mxGraphModel>
  </diagram>
</mxfile>
